ply
format ascii 1.0
element vertex 19
property float x
property float y
property float z
element face 27
property list uchar int vertex_indices
end_header
-0.171053 0 0.38
0.108947 0 0.39
-0.451053 0 0.23
-0.291053 0 0.16
-0.0710526 0 0.19
0.158947 0 0.15
0.378947 0 0.3
0.348947 0 0.11
-0.511053 0 -2.16655e-08
-0.281053 0 -0.05
-0.00105272 0 -0.02
0.288947 0 -0.04
0.488947 0 -0.08
-0.411053 0 -0.26
0.128947 0 -0.1
-0.0910526 0 -0.24
0.218947 0 -0.26
-0.121053 0 -0.48
0.278947 0 -0.38
3 0 1 4
3 0 4 3
3 0 3 2
3 1 5 4
3 1 6 5
3 5 6 7
3 2 3 8
3 3 9 8
3 3 4 9
3 5 7 11
3 7 12 11
3 6 12 7
3 8 9 13
3 9 15 13
3 9 15 10
3 10 14 15
3 14 16 15
3 11 16 14
3 11 16 12
3 5 14 10
3 5 11 14
3 4 10 9 
3 4 5 10
3 13 15 17
3 15 16 17
3 16 18 17
3 12 18 16
